<svg width="38" height="39" viewBox="0 0 38 39" fill="none" xmlns="http://www.w3.org/2000/svg">
<path id="Vector" d="M10.5303 0.708008C4.74057 0.708008 0.0302734 5.41831 0.0302734 11.208V28.008C0.0302734 33.7977 4.74057 38.508 10.5303 38.508H27.3303C33.12 38.508 37.8303 33.7977 37.8303 28.008V11.208C37.8303 5.41831 33.12 0.708008 27.3303 0.708008H10.5303ZM10.5303 4.90801H27.3303C30.8037 4.90801 33.6303 7.73461 33.6303 11.208V28.008C33.6303 31.4814 30.8037 34.308 27.3303 34.308H10.5303C7.05687 34.308 4.23027 31.4814 4.23027 28.008V11.208C4.23027 7.73461 7.05687 4.90801 10.5303 4.90801ZM29.4303 7.00801C28.8733 7.00801 28.3392 7.22926 27.9453 7.62308C27.5515 8.01691 27.3303 8.55105 27.3303 9.10801C27.3303 9.66496 27.5515 10.1991 27.9453 10.5929C28.3392 10.9868 28.8733 11.208 29.4303 11.208C29.9872 11.208 30.5214 10.9868 30.9152 10.5929C31.309 10.1991 31.5303 9.66496 31.5303 9.10801C31.5303 8.55105 31.309 8.01691 30.9152 7.62308C30.5214 7.22926 29.9872 7.00801 29.4303 7.00801ZM18.9303 9.10801C13.1406 9.10801 8.43027 13.8183 8.43027 19.608C8.43027 25.3977 13.1406 30.108 18.9303 30.108C24.72 30.108 29.4303 25.3977 29.4303 19.608C29.4303 13.8183 24.72 9.10801 18.9303 9.10801ZM18.9303 13.308C22.4037 13.308 25.2303 16.1346 25.2303 19.608C25.2303 23.0814 22.4037 25.908 18.9303 25.908C15.4569 25.908 12.6303 23.0814 12.6303 19.608C12.6303 16.1346 15.4569 13.308 18.9303 13.308Z" fill="#595959"/>
</svg>
